<svg xmlns="http://www.w3.org/2000/svg" width="1200" height="700" viewBox="0 0 1200 700">
  <rect width="1200" height="700" fill="#fffafc"/>
  <rect x="40" y="40" width="1120" height="620" rx="24" fill="#ffffff" stroke="#ffd6e0" stroke-width="2"/>
  <rect x="60" y="60" width="1080" height="120" rx="18" fill="#d62828"/>
  <rect x="80" y="90" width="180" height="20" rx="10" fill="#fff" opacity="0.85"/>
  <rect x="280" y="90" width="100" height="18" rx="9" fill="#fff" opacity="0.8"/>
  <rect x="400" y="90" width="110" height="18" rx="9" fill="#fff" opacity="0.8"/>
  <rect x="920" y="90" width="140" height="40" rx="20" fill="#fff" opacity="0.9"/>
  <rect x="80" y="220" width="250" height="140" rx="16" fill="#fff5f8" stroke="#ffd6e0"/>
  <rect x="360" y="220" width="250" height="140" rx="16" fill="#fff5f8" stroke="#ffd6e0"/>
  <rect x="640" y="220" width="250" height="140" rx="16" fill="#fff5f8" stroke="#ffd6e0"/>
  <rect x="920" y="220" width="100" height="140" rx="16" fill="#ffe4ea"/>
  <rect x="80" y="390" width="940" height="200" rx="18" fill="#fff5f8" stroke="#ffd6e0"/>
  <rect x="100" y="420" width="180" height="18" rx="9" fill="#d62828" opacity="0.9"/>
  <rect x="100" y="450" width="260" height="14" rx="7" fill="#ffb3c1"/>
  <rect x="100" y="475" width="220" height="14" rx="7" fill="#ffb3c1"/>
  <rect x="100" y="500" width="180" height="14" rx="7" fill="#ffb3c1"/>
</svg>
